<?xml version="1.0" encoding="iso-8859-1"?>
<!-- Generator: Adobe Illustrator 16.0.0, SVG Export Plug-In . SVG Version: 6.00 Build 0)  -->
<!DOCTYPE svg PUBLIC "-//W3C//DTD SVG 1.1//EN" "http://www.w3.org/Graphics/SVG/1.1/DTD/svg11.dtd">
<svg version="1.1" id="Capa_1" xmlns="http://www.w3.org/2000/svg" xmlns:xlink="http://www.w3.org/1999/xlink" x="0px" y="0px"
	 width="79.03px" height="79.03px" viewBox="0 0 79.03 79.03" style="enable-background:new 0 0 79.03 79.03;" xml:space="preserve"
	>
<g>
	<g>
		<path d="M24.152,30.712c1.369,0,2.537-0.535,3.025-1.282c-0.712,0.479-1.795,0.785-3.025,0.785c-1.23,0-2.31-0.306-3.024-0.785
			C21.618,30.179,22.788,30.712,24.152,30.712z"/>
		<circle cx="19.888" cy="22.742" r="1.21"/>
		<circle cx="28.416" cy="22.742" r="1.21"/>
		<path d="M55.544,33.321c1.738,0,3.226-0.675,3.846-1.633c-0.905,0.615-2.285,1.007-3.846,1.007c-1.564,0-2.942-0.393-3.844-1.007
			C52.323,32.646,53.809,33.321,55.544,33.321z"/>
		<circle cx="50.12" cy="24.392" r="1.539"/>
		<path d="M60.969,22.853c0.851,0,1.542,0.689,1.542,1.539c0,0.851-0.691,1.54-1.542,1.54c-0.849,0-1.538-0.689-1.538-1.54
			C59.431,23.542,60.12,22.853,60.969,22.853z"/>
		<path d="M71.973,42.75c-0.322-4.525-2.464-8.553-5.705-11.334c0.732-0.996,1.357-2.086,1.8-3.28
			c1.482-0.067,2.673-1.632,2.673-3.55c0-1.46-0.707-2.707-1.74-3.234c0.176-2.341-0.101-5.581-2.148-8.031
			c-1.663-1.993-4.136-3.289-6.232-3.574c-0.082-0.172-0.171-0.339-0.267-0.477c-2.203-3.103-10.365-1.716-14.72,2.467
			c-3.388,3.258-3.789,7.027-3.501,9.6c-1.05,0.515-1.776,1.778-1.776,3.252c0,1.91,1.192,3.481,2.673,3.55
			c0.444,1.201,1.067,2.287,1.804,3.28c-2.034,1.743-3.633,3.968-4.624,6.504c-0.801-2.14-2.006-4.066-3.538-5.702v-9.702
			c0-7.711-5.604-13.957-12.516-13.957c-6.907,0-12.508,6.246-12.508,13.957v9.7c-2.621,2.799-4.309,6.472-4.583,10.541H0v28.688
			h79.03V42.757h-7.058V42.75z M47.398,36.911h16.351v5.839H47.398V36.911z M43.792,27.449l-0.128-0.364l-0.388,0.049
			c-0.087,0.009-0.157,0.037-0.15,0.052c-1.004,0-1.816-1.168-1.816-2.601c0-0.977,0.39-1.814,0.981-2.249
			c0.251,1.272,0.63,2.079,0.705,2.058c-0.222-0.351,2.44-5.914,11.918-4.157c2.729,0.506,4.472-1.119,5.402-3.301
			c0.125,0.038,0.234,0.073,0.355,0.104c6.294,1.458,7.911,7.146,7.729,7.354c0.05,0.021,0.308-0.776,0.485-1.993
			c0.536,0.452,0.903,1.268,0.903,2.184c0,1.433-0.818,2.601-1.77,2.601c-0.048-0.02-0.116-0.047-0.203-0.052l-0.386-0.049
			l-0.125,0.364c-0.425,1.233-1.024,2.369-1.775,3.378c-2.294,3.116-5.972,5.051-9.986,5.051c-4.01,0-7.683-1.936-9.979-5.051
			C44.818,29.818,44.212,28.685,43.792,27.449z M14.55,26.283c-0.051,0.007-0.103,0.049-0.163,0.049
			c-0.996,0-1.803-1.085-1.803-2.422c0-0.972,0.439-1.774,1.053-2.149c0.192,0.771,0.418,1.246,0.468,1.236
			c-0.167-0.283,1.885-4.658,9.214-3.275c2.106,0.4,3.455-0.88,4.172-2.597c0.096,0.025,0.18,0.056,0.283,0.084
			c4.861,1.144,6.112,5.615,5.969,5.791c0.047,0.014,0.253-0.657,0.393-1.685c0.015,0.082,0.038,0.163,0.047,0.245
			c0.871,0.173,1.551,1.135,1.551,2.35c0,1.337-0.81,2.422-1.803,2.422c-0.06,0-0.114-0.042-0.172-0.049
			c-0.318,0.938-0.78,1.808-1.341,2.603c-1.836,2.581-4.842,4.282-8.258,4.282c-3.412,0-6.417-1.696-8.254-4.282
			C15.333,28.093,14.871,27.225,14.55,26.283z M14.893,37.495v-0.584h16.351v0.584v5.255H14.893V37.495z"/>
	</g>
</g>
<g>
</g>
<g>
</g>
<g>
</g>
<g>
</g>
<g>
</g>
<g>
</g>
<g>
</g>
<g>
</g>
<g>
</g>
<g>
</g>
<g>
</g>
<g>
</g>
<g>
</g>
<g>
</g>
<g>
</g>
</svg>
